<svg width="72" height="47" viewBox="0 0 72 47" fill="none" xmlns="http://www.w3.org/2000/svg">
<path d="M27.87 0.98L43.6 41.54C44.2067 43.0133 44.8567 44.075 45.55 44.725C46.2433 45.3317 46.8717 45.6567 47.435 45.7V47C45.875 46.9133 44.055 46.87 41.975 46.87C39.895 46.8267 37.7717 46.805 35.605 46.805C33.395 46.805 31.315 46.8267 29.365 46.87C27.415 46.87 25.855 46.9133 24.685 47V45.7C26.895 45.6133 28.2817 45.245 28.845 44.595C29.4517 43.9017 29.3217 42.45 28.455 40.24L18.055 11.445L19.355 9.17L10.385 32.505C9.30167 35.3217 8.63 37.5967 8.37 39.33C8.15333 41.02 8.26167 42.32 8.695 43.23C9.12833 44.14 9.82167 44.7683 10.775 45.115C11.7283 45.4617 12.855 45.6567 14.155 45.7V47C12.5517 46.9133 11.1 46.87 9.8 46.87C8.54333 46.8267 7.15667 46.805 5.64 46.805C4.81667 46.805 3.92833 46.8267 2.975 46.87C2.065 46.87 1.285 46.9133 0.635 47V45.7C1.63167 45.5267 2.60667 44.8983 3.56 43.815C4.55667 42.6883 5.575 40.7817 6.615 38.095L21.045 0.98C22.085 1.06667 23.2117 1.11 24.425 1.11C25.6817 1.11 26.83 1.06667 27.87 0.98ZM30.145 28.28V29.58H10.775L11.425 28.28H30.145ZM71.39 0.98V2.28C70.3934 2.75666 69.31 3.71 68.14 5.14C66.97 6.52666 65.8867 8.60666 64.89 11.38L52.215 47C51.695 46.9567 51.1317 46.935 50.525 46.935C49.9617 46.8917 49.3767 46.87 48.77 46.87C48.2067 46.87 47.6217 46.8917 47.015 46.935C46.4517 46.935 45.91 46.9567 45.39 47L28.36 6.44C27.7534 4.92333 27.1034 3.86166 26.41 3.255C25.76 2.64833 25.1317 2.32333 24.525 2.28V0.98C26.085 1.02333 27.905 1.06667 29.985 1.11C32.1084 1.15333 34.2317 1.175 36.355 1.175C38.565 1.175 40.645 1.15333 42.595 1.11C44.545 1.06667 46.105 1.02333 47.275 0.98V2.28C45.9317 2.32333 44.87 2.475 44.09 2.735C43.31 2.995 42.855 3.515 42.725 4.295C42.6384 5.03166 42.8984 6.18 43.505 7.74L55.205 36.535L53.645 38.55L61.055 17.75C62.3984 13.9367 63.1134 10.925 63.2 8.715C63.2867 6.46166 62.8534 4.83666 61.9 3.84C60.9467 2.84333 59.6034 2.32333 57.87 2.28V0.98C59.5167 1.02333 60.9684 1.06667 62.225 1.11C63.525 1.15333 64.9117 1.175 66.385 1.175C67.2517 1.175 68.14 1.15333 69.05 1.11C69.96 1.06667 70.74 1.02333 71.39 0.98Z" fill="black"/>
</svg>
