<svg width="35" height="35" viewBox="0 0 35 35" fill="none" xmlns="http://www.w3.org/2000/svg">
<path d="M32.8125 5.00001V8.12499C32.8125 10.8789 25.9538 13.125 17.5 13.125C9.0462 13.125 2.1875 10.8789 2.1875 8.12499V5.00001C2.1875 2.24608 9.0462 0 17.5 0C25.9538 0 32.8125 2.24608 32.8125 5.00001ZM32.8125 12.0312V19.0625C32.8125 21.8164 25.9538 24.0625 17.5 24.0625C9.0462 24.0625 2.1875 21.8164 2.1875 19.0625V12.0312C5.47729 14.2969 11.4986 15.3516 17.5 15.3516C23.5014 15.3516 29.5226 14.2969 32.8125 12.0312ZM32.8125 22.9688V30C32.8125 32.7539 25.9538 35 17.5 35C9.0462 35 2.1875 32.7539 2.1875 30V22.9688C5.47729 25.2344 11.4986 26.2891 17.5 26.2891C23.5014 26.2891 29.5226 25.2344 32.8125 22.9688Z" fill="white"/>
</svg>
