<svg width="35" height="35" viewBox="0 0 35 35" fill="none" xmlns="http://www.w3.org/2000/svg">
<path d="M13.8154 22.4697C13.8154 23.8984 13.0703 26.2363 11.3066 26.2363C9.54297 26.2363 8.79785 23.8984 8.79785 22.4697C8.79785 21.041 9.54297 18.7031 11.3066 18.7031C13.0703 18.7031 13.8154 21.041 13.8154 22.4697ZM33.9062 19.0176C33.9062 21.1982 33.6875 23.5088 32.71 25.5117C30.1191 30.748 22.9961 30.625 17.8965 30.625C12.7148 30.625 5.16797 30.8096 2.47461 25.5117C1.47656 23.5293 1.09375 21.1982 1.09375 19.0176C1.09375 16.1533 2.04395 13.4463 3.93066 11.252C3.5752 10.1719 3.4043 9.03711 3.4043 7.91602C3.4043 6.44629 3.73926 5.70801 4.40234 4.375C7.49902 4.375 9.48145 4.99023 11.8398 6.83594C13.8223 6.36426 15.8594 6.15234 17.9033 6.15234C19.749 6.15234 21.6084 6.35059 23.3994 6.78125C25.7236 4.95605 27.7061 4.375 30.7686 4.375C31.4385 5.70801 31.7666 6.44629 31.7666 7.91602C31.7666 9.03711 31.5889 10.1514 31.2402 11.2109C33.1201 13.4258 33.9062 16.1533 33.9062 19.0176ZM29.5107 22.4697C29.5107 19.4688 27.6855 16.8232 24.4863 16.8232C23.1943 16.8232 21.957 17.0557 20.6582 17.2334C19.6396 17.3906 18.6211 17.4521 17.5752 17.4521C16.5361 17.4521 15.5176 17.3906 14.4922 17.2334C13.2139 17.0557 11.9629 16.8232 10.6641 16.8232C7.46484 16.8232 5.63965 19.4688 5.63965 22.4697C5.63965 28.4717 11.1357 29.3945 15.9209 29.3945H19.2158C24.0215 29.3945 29.5107 28.4785 29.5107 22.4697ZM23.8643 18.7031C22.1006 18.7031 21.3555 21.041 21.3555 22.4697C21.3555 23.8984 22.1006 26.2363 23.8643 26.2363C25.6279 26.2363 26.373 23.8984 26.373 22.4697C26.373 21.041 25.6279 18.7031 23.8643 18.7031Z" fill="#FFFCFC"/>
</svg>
