<svg width="35" height="35" viewBox="0 0 35 35" fill="none" xmlns="http://www.w3.org/2000/svg">
<g clip-path="url(#clip0_25_41)">
<path d="M34.4804 7.91807C34.475 7.90218 34.4686 7.88665 34.4612 7.87158C34.4514 7.84218 34.4393 7.81361 34.425 7.78613C34.4139 7.76906 34.4016 7.75284 34.3881 7.7376C34.3731 7.71516 34.3566 7.6937 34.3389 7.67334C34.3231 7.6583 34.3033 7.646 34.2862 7.63232C34.2667 7.61554 34.2462 7.60001 34.2247 7.58584L27.6444 3.79736C27.5613 3.74937 27.467 3.7241 27.371 3.7241C27.275 3.7241 27.1807 3.74937 27.0976 3.79736L20.5159 7.58789C20.4948 7.6022 20.4747 7.61796 20.4558 7.63506C20.4371 7.64758 20.4193 7.66128 20.4024 7.67607C20.3845 7.69606 20.3681 7.71731 20.3532 7.73965C20.3416 7.75605 20.3266 7.77041 20.3163 7.78818C20.3025 7.8158 20.2906 7.84436 20.2808 7.87363C20.2753 7.88936 20.2664 7.90371 20.2616 7.92012C20.2491 7.96648 20.2427 8.01428 20.2425 8.06231V15.2564L14.7587 18.414V4.33672C14.7588 4.28845 14.7524 4.24039 14.7396 4.19385C14.7354 4.17744 14.7259 4.16309 14.7204 4.14736C14.7109 4.1182 14.699 4.08985 14.6849 4.0626C14.6753 4.04482 14.6596 4.03047 14.6479 4.01338C14.6329 3.99094 14.6165 3.96948 14.5987 3.94912C14.5817 3.93453 14.5639 3.92084 14.5454 3.90811C14.5263 3.89148 14.5062 3.87597 14.4853 3.86162L7.90293 0.0731453C7.8198 0.025147 7.72549 -0.00012207 7.62949 -0.00012207C7.5335 -0.00012207 7.43919 0.025147 7.35606 0.0731453L0.7751 3.86162C0.753734 3.87559 0.733608 3.89137 0.714943 3.90879C0.696091 3.9213 0.678053 3.935 0.66094 3.94981C0.643259 3.96981 0.627039 3.99105 0.612404 4.01338C0.6001 4.03047 0.585061 4.04482 0.574807 4.0626C0.560799 4.08981 0.549135 4.11817 0.539943 4.14736C0.532477 4.16224 0.525859 4.17754 0.520119 4.19316C0.507543 4.23998 0.501109 4.28824 0.500979 4.33672V26.8748C0.500717 26.9711 0.525861 27.0657 0.573873 27.1491C0.621884 27.2325 0.691061 27.3018 0.774416 27.3499L13.9336 34.9269C13.9628 34.9416 13.9933 34.9539 14.0245 34.9638C14.0389 34.9692 14.0525 34.9774 14.0676 34.9815C14.1594 35.0061 14.256 35.0061 14.3479 34.9815C14.3615 34.9781 14.3731 34.9706 14.3854 34.9665C14.4185 34.9561 14.4505 34.9429 14.4812 34.9269L27.6444 27.3499C27.7278 27.3018 27.797 27.2325 27.845 27.1491C27.893 27.0657 27.9181 26.9711 27.9179 26.8748V19.6793L34.2233 16.0487C34.3072 16.0003 34.3767 15.9305 34.4247 15.8464C34.4728 15.7624 34.4976 15.667 34.4968 15.5702V8.06094C34.4972 8.01282 34.4916 7.96484 34.4804 7.91807ZM7.62881 1.18125L13.1105 4.33604L7.62813 7.49287L2.14707 4.33672L7.62881 1.18125ZM13.6615 5.28281V19.0449L10.4808 20.8763L8.17774 22.2024V8.44238L11.3585 6.61104L13.6615 5.28281ZM13.6615 33.5002L1.59746 26.5576V5.28555L3.90049 6.61035L7.08057 8.44238V23.152C7.08196 23.1726 7.0847 23.1932 7.08877 23.2135C7.09041 23.2406 7.09406 23.2676 7.09971 23.2941C7.10666 23.3153 7.11535 23.3359 7.12568 23.3557C7.1333 23.3792 7.1429 23.4021 7.1544 23.424C7.16703 23.4426 7.18073 23.4604 7.19541 23.4773C7.20909 23.4975 7.22416 23.5167 7.24053 23.5348C7.25625 23.5498 7.27608 23.5607 7.29317 23.5744C7.31183 23.5906 7.33146 23.6057 7.35195 23.6195L13.654 27.1865L13.6615 33.5002ZM14.2084 26.2425L8.73555 23.1444L14.4839 19.8352L20.7907 16.2046L26.2684 19.358L22.2488 21.6521L14.2084 26.2425ZM26.8221 26.5549L14.7573 33.5036V27.1934L23.6933 22.0938L26.8221 20.3062V26.5549ZM26.8221 18.4112L24.519 17.0898L21.3383 15.2585V9.00908L23.6413 10.3353L26.8221 12.168V18.4112ZM27.3689 11.2144L21.8865 8.0582L27.3689 4.90273L32.85 8.05752L27.3689 11.2144ZM27.9158 18.4112V12.168L31.1034 10.3353L33.4058 9.00908V15.2564L27.9158 18.4112Z" fill="white"/>
</g>
<defs>
<clipPath id="clip0_25_41">
<rect width="35" height="35" fill="white"/>
</clipPath>
</defs>
</svg>
