<svg width="35" height="35" viewBox="0 0 35 35" fill="none" xmlns="http://www.w3.org/2000/svg">
<path d="M17.5 9.21489C26.8734 9.21489 34.0813 13.1633 34.0813 17.5C34.0813 21.8368 26.868 25.7852 17.5 25.7852C8.12656 25.7852 0.91875 21.8368 0.91875 17.5C0.91875 13.1633 8.13203 9.21489 17.5 9.21489ZM17.5 8.29614C7.83672 8.29614 0 12.4141 0 17.5C0 22.586 7.83672 26.704 17.5 26.704C27.1633 26.704 35 22.586 35 17.5C35 12.4141 27.1633 8.29614 17.5 8.29614ZM11.9328 16.7618C11.5008 18.9766 9.975 18.7469 8.09922 18.7469L8.84844 14.886C10.9266 14.886 12.3375 14.6618 11.9328 16.7618ZM5.32656 22.6571H7.33359L7.80938 20.2071C10.057 20.2071 11.4516 20.3711 12.7422 19.1625C14.1695 17.85 14.5414 15.5149 13.5242 14.3446C12.9938 13.7321 12.1406 13.4313 10.9813 13.4313H7.11484L5.32656 22.6571ZM15.482 10.9758H17.4781L17.0023 13.4258C18.725 13.4258 20.3219 13.3 21.093 14.011C21.9023 14.7547 21.5141 15.7063 20.6391 20.1961H18.6156C19.4578 15.854 19.6164 15.493 19.3102 15.1649C19.0148 14.8477 18.3422 14.9133 16.718 14.9133L15.6898 20.1961H13.6937L15.482 10.9758ZM27.6172 16.7618C27.1797 19.0094 25.6102 18.7469 23.7836 18.7469L24.5328 14.886C26.6219 14.886 28.0219 14.6618 27.6172 16.7618ZM21.0109 22.6571H23.0234L23.4992 20.2071C25.8617 20.2071 27.1688 20.3438 28.432 19.1625C29.8594 17.85 30.2313 15.5149 29.2141 14.3446C28.6836 13.7321 27.8305 13.4313 26.6711 13.4313H22.8047L21.0109 22.6571Z" fill="white"/>
</svg>
