<svg width="35" height="35" viewBox="0 0 35 35" fill="none" xmlns="http://www.w3.org/2000/svg">
<path d="M28.5879 12.1133C28.2188 11.9902 27.8496 11.874 27.4805 11.7646C27.542 11.5117 27.5967 11.2588 27.6514 11.0059C28.4922 6.93164 27.9385 3.65723 26.0723 2.57715C24.2744 1.54492 21.3418 2.61816 18.375 5.20215C18.0811 5.45508 17.7939 5.72168 17.5205 5.98828C17.3359 5.81055 17.1445 5.63281 16.9531 5.46191C13.8428 2.7002 10.7256 1.53809 8.85938 2.625C7.06836 3.66406 6.53516 6.74707 7.28711 10.6025C7.3623 10.9854 7.44434 11.3613 7.54004 11.7441C7.10254 11.8672 6.67188 12.0039 6.26855 12.1475C2.61816 13.4121 0 15.4082 0 17.4727C0 19.6055 2.78906 21.7451 6.58301 23.0439C6.89062 23.1465 7.19824 23.249 7.5127 23.3379C7.41016 23.748 7.32129 24.1514 7.23926 24.5684C6.52148 28.3623 7.08203 31.3701 8.87305 32.4023C10.7188 33.4688 13.8223 32.375 16.8438 29.7295C17.083 29.5176 17.3223 29.2988 17.5615 29.0664C17.8623 29.3604 18.1768 29.6406 18.4912 29.9141C21.417 32.4297 24.3086 33.4482 26.0928 32.416C27.9385 31.3496 28.54 28.1162 27.7607 24.1787C27.6992 23.8779 27.6309 23.5703 27.5557 23.2559C27.7744 23.1943 27.9863 23.126 28.1982 23.0576C32.1426 21.752 35 19.6396 35 17.4727C35 15.4014 32.3066 13.3916 28.5879 12.1133ZM19.3389 6.30957C21.8818 4.09473 24.2539 3.22656 25.334 3.84863C26.4893 4.51172 26.9336 7.19141 26.209 10.7119C26.1611 10.9443 26.1133 11.1699 26.0518 11.3955C24.5342 11.0537 22.9961 10.8076 21.4512 10.6709C20.5625 9.39941 19.5918 8.18262 18.5391 7.04102C18.8057 6.78809 19.0654 6.54883 19.3389 6.30957ZM11.4297 21.0205C11.7783 21.6152 12.1338 22.21 12.5098 22.791C11.4434 22.6748 10.3838 22.5039 9.33789 22.2783C9.63867 21.2939 10.0146 20.2754 10.4521 19.2363C10.7666 19.8379 11.0879 20.4326 11.4297 21.0205ZM9.3584 12.7969C10.3428 12.5781 11.3887 12.4004 12.4756 12.2637C12.1133 12.8311 11.7578 13.4121 11.4229 14C11.0879 14.5811 10.7598 15.1758 10.4521 15.7773C10.0215 14.7588 9.65918 13.7607 9.3584 12.7969ZM11.2314 17.5068C11.6826 16.5635 12.1748 15.6406 12.6943 14.7314C13.2139 13.8223 13.7744 12.9404 14.3623 12.0723C15.3877 11.9971 16.4336 11.9561 17.5 11.9561C18.5664 11.9561 19.6191 11.9971 20.6377 12.0723C21.2188 12.9336 21.7725 13.8154 22.2988 14.7178C22.8252 15.6201 23.3174 16.543 23.7822 17.4795C23.3242 18.4228 22.832 19.3525 22.3057 20.2686C21.7861 21.1777 21.2324 22.0596 20.6514 22.9346C19.6328 23.0098 18.5732 23.0439 17.5 23.0439C16.4268 23.0439 15.3877 23.0098 14.3828 22.9482C13.7881 22.0801 13.2275 21.1914 12.7012 20.2822C12.1748 19.373 11.6895 18.4502 11.2314 17.5068ZM23.5771 21.0068C23.9258 20.4053 24.2539 19.7969 24.5752 19.1816C25.0127 20.1729 25.3955 21.1777 25.7305 22.21C24.6709 22.4492 23.5977 22.6338 22.5176 22.7568C22.8867 22.1826 23.2354 21.5947 23.5771 21.0068ZM24.5615 15.7773C24.2402 15.1758 23.9121 14.5742 23.5703 13.9863C23.2354 13.4053 22.8867 12.8311 22.5244 12.2637C23.625 12.4004 24.6777 12.585 25.6621 12.8105C25.3477 13.8223 24.9785 14.8066 24.5615 15.7773ZM17.5137 8.08691C18.2314 8.86621 18.9082 9.68652 19.5371 10.5342C18.1836 10.4727 16.8232 10.4727 15.4697 10.5342C16.1396 9.65234 16.8301 8.83203 17.5137 8.08691ZM9.58398 3.89648C10.7324 3.22656 13.2822 4.18359 15.9688 6.5625C16.1396 6.71289 16.3105 6.87695 16.4883 7.04102C15.4287 8.18262 14.4512 9.39941 13.5557 10.6709C12.0107 10.8076 10.4795 11.0469 8.96191 11.3818C8.87305 11.0332 8.79785 10.6777 8.72266 10.3223C8.08008 7.01367 8.50391 4.51855 9.58398 3.89648ZM7.90918 21.916C7.62207 21.834 7.3418 21.7451 7.06152 21.6494C5.60547 21.1914 3.95117 20.4668 2.75488 19.5166C2.06445 19.0381 1.59961 18.2998 1.46973 17.4727C1.46973 16.2217 3.62988 14.6221 6.74707 13.5352C7.13672 13.3984 7.5332 13.2754 7.92969 13.1592C8.39453 14.6426 8.95508 16.0986 9.60449 17.5068C8.94824 18.9355 8.38086 20.4121 7.90918 21.916ZM15.8799 28.6152C14.752 29.6475 13.4463 30.4678 12.0244 31.0283C11.2656 31.3906 10.3906 31.4248 9.61133 31.1172C8.52441 30.4883 8.07324 28.0752 8.68848 24.8281C8.76367 24.4453 8.8457 24.0625 8.94141 23.6865C10.4727 24.0146 12.0176 24.2402 13.583 24.3564C14.4854 25.6348 15.4766 26.8584 16.5361 28.0068C16.3174 28.2188 16.0986 28.4238 15.8799 28.6152ZM17.5547 26.9541C16.8574 26.2021 16.1602 25.3682 15.4834 24.4727C16.1396 24.5 16.8164 24.5137 17.5 24.5137C18.2041 24.5137 18.8945 24.5 19.5781 24.4658C18.9492 25.334 18.2725 26.1611 17.5547 26.9541ZM26.4893 29.0049C26.4277 29.8389 26.0176 30.6182 25.3613 31.1445C24.2744 31.7734 21.957 30.9531 19.4551 28.8066C19.168 28.5605 18.8809 28.2939 18.5869 28.0205C19.6328 26.8652 20.5967 25.6416 21.4717 24.3564C23.0371 24.2266 24.5957 23.9873 26.1338 23.6387C26.2021 23.9189 26.2637 24.1992 26.3184 24.4727C26.6533 25.9492 26.708 27.4873 26.4893 29.0049ZM27.7334 21.6562C27.542 21.7178 27.3506 21.7793 27.1523 21.834C26.6738 20.3437 26.0859 18.8877 25.4092 17.4727C26.0654 16.0781 26.6191 14.6426 27.084 13.1729C27.4395 13.2754 27.7812 13.3848 28.1094 13.4941C31.2949 14.5879 33.5303 16.2148 33.5303 17.459C33.5303 18.7988 31.1445 20.5283 27.7334 21.6562ZM17.5 20.6309C19.2295 20.6309 20.6309 19.2295 20.6309 17.5C20.6309 15.7705 19.2295 14.3691 17.5 14.3691C15.7705 14.3691 14.3691 15.7705 14.3691 17.5C14.3691 19.2295 15.7705 20.6309 17.5 20.6309Z" fill="white"/>
</svg>
