<svg width="35" height="35" viewBox="0 0 35 35" fill="none" xmlns="http://www.w3.org/2000/svg">
<path d="M32.2349 16.1362L18.8672 2.76515C18.4972 2.39543 17.9955 2.18774 17.4724 2.18774C16.9493 2.18774 16.4476 2.39543 16.0775 2.76515L13.298 5.54259L16.8199 9.06447C18.6697 8.43966 20.4211 10.2109 19.786 12.0504L23.1807 15.4451C25.5207 14.6385 27.3629 17.5643 25.6054 19.3204C23.7946 21.1313 20.8059 19.1242 21.7773 16.7679L18.6088 13.6035V21.9331C20.3383 22.7903 20.1305 24.794 19.2295 25.6929C18.7894 26.1328 18.1925 26.38 17.5701 26.38C16.9478 26.38 16.3509 26.1328 15.9107 25.6929C14.7096 24.4898 15.154 22.4862 16.6797 21.8648V13.4566C15.2579 12.8748 14.9981 11.3552 15.4055 10.3804L11.9336 6.90431L2.76519 16.074C2.3953 16.444 2.1875 16.9457 2.1875 17.4689C2.1875 17.9921 2.3953 18.4938 2.76519 18.8638L16.137 32.2349C16.5069 32.6046 17.0085 32.8122 17.5315 32.8122C18.0545 32.8122 18.5561 32.6046 18.926 32.2349L32.2349 18.926C32.6048 18.556 32.8126 18.0543 32.8126 17.5311C32.8126 17.008 32.6048 16.5062 32.2349 16.1362Z" fill="white"/>
</svg>
